/* XPM */
static char *_27a50d2dc974212b52e691820b8350cWPelwcNQYg6VjIrm[] = {
/* columns rows colors chars-per-pixel */
"64 64 140 2 ",
"   c None",
".  c #1A3F6F",
"X  c #1A3F70",
"o  c #243F6D",
"O  c #2C3F6C",
"+  c #343F6A",
"@  c #3E3F68",
"#  c #663C5F",
"$  c #6C3C5E",
"%  c #7E3A5B",
"&  c #4A3D65",
"*  c #463C65",
"=  c #523C63",
"-  c #5A3C62",
";  c #663B60",
":  c #1C406E",
">  c #1A4272",
",  c #174B7C",
"<  c #18497A",
"1  c #2E4C66",
"2  c #23416E",
"3  c #2B4768",
"4  c #334D63",
"5  c #354069",
"6  c #355063",
"7  c #395161",
"8  c #244470",
"9  c #324A71",
"0  c #3A4F72",
"q  c #3D5072",
"w  c #4C5E57",
"e  c #42565E",
"r  c #46595B",
"t  c #4A5B59",
"y  c #5E694F",
"u  c #536256",
"i  c #596553",
"p  c #7D7C41",
"a  c #425273",
"s  c #495774",
"d  c #535A74",
"f  c #5F6075",
"g  c #5F6278",
"h  c #6A6675",
"j  c #6D6876",
"k  c #636274",
"l  c #766C77",
"z  c #786D77",
"x  c #823A5A",
"c  c #8A3A59",
"v  c #923A57",
"b  c #983956",
"n  c #B7374F",
"m  c #BD374E",
"M  c #B9384F",
"N  c #A33853",
"B  c #AC3852",
"V  c #B33850",
"C  c #C3374C",
"Z  c #CE364B",
"A  c #DD3647",
"S  c #D3364A",
"D  c #DA3548",
"F  c #E23546",
"G  c #EE3544",
"H  c #8A7679",
"J  c #9C7E7A",
"K  c #EB464F",
"L  c #F04A51",
"P  c #F05255",
"I  c #F15B5C",
"U  c #86813D",
"Y  c #8A843A",
"T  c #9E9032",
"R  c #A8962D",
"E  c #AC992B",
"W  c #A6942E",
"Q  c #B79F26",
"!  c #B29C2A",
"~  c #A19132",
"^  c #BBA224",
"/  c #CAAB1E",
"(  c #D1AF1B",
")  c #DDB615",
"_  c #EABE0F",
"`  c #E4BB11",
"'  c #E8BC10",
"]  c #C4A621",
"[  c #EEC10E",
"{  c #FFCB05",
"}  c #F3C40C",
"|  c #FAC708",
" . c #FFCE0B",
".. c #ECC214",
"X. c #F1C512",
"o. c #FFD113",
"O. c #FFD419",
"+. c #FFDA25",
"@. c #FFDD2C",
"#. c #A0817B",
"$. c #AE877B",
"%. c #B1897C",
"&. c #C3927E",
"*. c #D39A7F",
"=. c #154E81",
"-. c #0F5A8F",
";. c #145283",
":. c #11568A",
">. c #12598E",
",. c #0E5E93",
"<. c #0E6196",
"1. c #0B669C",
"2. c #0A689F",
"3. c #096BA3",
"4. c #086FA8",
"5. c #0675AE",
"6. c #0673AB",
"7. c #0576B0",
"8. c #0479B3",
"9. c #047AB6",
"0. c #027EB9",
"q. c #027EB9",
"w. c #857B80",
"e. c #0083BF",
"r. c #0082BE",
"t. c #0181BD",
"y. c #0083BF",
"u. c #008DCE",
"i. c #008FD1",
"p. c #0090D3",
"a. c #0091D5",
"s. c #0094D9",
"d. c #E09F80",
"f. c #E2A180",
"g. c #EDA682",
"h. c #F5AC84",
"j. c #F9AC82",
"k. c #F8B086",
"l. c #F8B48B",
"z. c #F8BA93",
/* pixels */
"                                                                                                                                ",
"                                                                                                                                ",
"                                                                                . .                                             ",
"                                                                              . . .                                             ",
"                                                                      . . . . .                                                 ",
"                                                                    . o $ x & . .                                               ",
"                                                                  . o S G P L x .                                               ",
"                                                        . : . . . . c G G L I K O .                                             ",
"                                                    : . 4 p ~ ! Y . B G G G P L * .                                             ",
"                                                  : 4 ! O.@.@.o._ : x G G G G F o .                                             ",
"                                                : w ..@.@.+.O.{ { i 2 m G G G ; .                                               ",
"                                              : 7 X.@.@.o.{ { { { ` 4 . = $ + . .                                               ",
"                                              . / @.@. .{ { { { { { _ p 7 3 t .                                                 ",
"                                            : y o.@.o.{ { { { { { { { { { { { r :                                               ",
"                                            . E +.@.{ { { { { { { { { { { { { T .                                               ",
"                                            . ) @.O.{ { { { { { { { { { { { { / .                                               ",
"                                            . } @.O.{ { { { { { { { { { { { { ` .                                               ",
"                                            . ' @.O.{ { { { { { { { { { { { { ) .                                               ",
"                                            . / o. .{ { { { { { { { { { { { { ^ .                                               ",
"                                          D . U { { { { { { { { { { { { { { { p . S                                             ",
"                                      G V 2 . r { { { { { { { { { { { { { { { 7 . 2 V G                                         ",
"                                    G G 5 t ^ / { { { { { { { { { { { { { { { ] Q e + G G                                       ",
"                                  G G G : p { { { { { { { { { { { { { { { { { { { p . G G G                                     ",
"                                G G G G - : u 6 [ { { { { { { { { { { { { { [ 6 u : - G G G G                                   ",
"                                G G G G F o . 2 | { { { { { { { { { { { { { | 2 . o F G G G G                                   ",
"                              G G G G G V . =.: T Y 1 } { { { { { { { } 1 Y T : =.. B G G G G G                                 ",
"                            G G G G G G # > e.>.. . . R ( 1 E { E 1 ( W . . . , 0.> ; G G G G G G                               ",
"                            G G G G G G O :.u.s.8.8.;.. . . u ) u . . . , 8.7.e.e.,.O G G G G G G                               ",
"                          G G G G G G A . 1.p.a.e.e.e.3.2.2.: . > <.2.3.e.e.e.e.e.3.. A G G G G G G                             ",
"                          G G G G G G Z . 3.a.i.e.e.e.e.e.e.8.3.7.e.e.e.e.e.e.e.e.6.. Z G G G G G G                             ",
"                          G G G G G G S . 2.a.p.e.e.e.e.e.e.e.e.e.e.e.e.e.e.e.e.e.4.. S G G G G G G                             ",
"                          G G G G G G F . <.u.u.e.e.e.e.e.e.e.e.e.e.e.e.e.e.e.e.e.2.. F G G G G G G                             ",
"                        G G G G G G G G + ;.e.e.e.e.e.e.e.e.e.e.e.e.e.e.e.e.e.e.e.>.+ G G G G G G G G                           ",
"                        G G G G G G G F = > 0.e.e.e.e.e.e.e.e.e.e.e.e.e.e.e.e.e.e.> = A G G G G G G G                           ",
"                        G G G G G G M 2 . . 3.e.e.e.e.e.e.e.e.e.e.e.e.e.e.e.e.e.7.. . o n G G G G G G                           ",
"                        G G G G G G + , 5.6.e.e.e.e.e.e.e.e.e.e.e.e.e.e.e.e.e.e.e.5.7.=.O G G G G G G                           ",
"                        G G G G G F . 1.e.e.e.e.e.e.e.e.e.e.e.e.e.e.e.e.e.e.e.e.e.e.e.3.. S G G G G G                           ",
"                        G G G G G G + < 6.3.7.e.e.e.e.e.e.e.e.e.e.e.e.e.e.e.e.e.8.3.5., o G G G G G G                           ",
"                        G G G G G G M o . . ,.e.e.e.e.e.e.e.e.e.e.e.e.e.e.e.e.e.,.. . 2 B G G G G G G                           ",
"                          G G G G G G A b . 2.e.e.0.e.e.e.e.e.e.e.e.e.e.e.0.e.e.3.. c D G G G G G G                             ",
"                          G G G G G G G G O < 3.-.X 9.e.e.e.e.e.e.e.e.e.0.> >.3., o F G G G G G G G                             ",
"                          G G G G G G G G V o . . . 2.e.3.> 0.e.0.> 3.e.3.. . . 2 N G G G G G G G G                             ",
"                          G G G G G G G G G D 2 j a > < . . 3.e.4.. > < : s h . Z G G G G G G G G G                             ",
"                            G G G G G G G G G $ 2 f.w.g H 9 > ;.> 0 H f H f.2 - G G G G G G G G G                               ",
"                            G G G G G G G G G C . #.z.z.j.d.h a j f.j.j.j.J . V G G G G G G G G G                               ",
"                              G G G G G G G G G & a l.z.l.j.j.j.j.j.j.j.j.a + G G G G G G G G G                                 ",
"                              G G G G G G G G G N . &.z.z.j.j.j.j.j.j.j.&.. v G G G G G G G G G                                 ",
"                                G G G G G G G G G O h l.z.j.j.j.j.j.j.j.k 2 A G G G G G G G G                                   ",
"                                  G G G G G G G G x : f.z.l.j.j.j.j.j.f.: $ G G G G G G G G                                     ",
"                                    G G G G G G G S . H l.z.j.j.j.j.j.H . C G G G G G G G                                       ",
"                                      G G G G G G G - 9 h.z.l.j.j.j.h.9 & G G G G G G G                                         ",
"                                        G G G G G G V . %.z.z.j.j.j.$.. N G G G G G G                                           ",
"                                            G G G G G @ d l.z.k.j.j.d O G G G G G                                               ",
"                                                G G G v . *.z.l.j.*.. % G G G                                                   ",
"                                                      D 2 z l.z.j.l : C                                                         ",
"                                                        . 2 g.j.g.8 .                                                           ",
"                                                          . J j.J .                                                             ",
"                                                          : q j.q .                                                             ",
"                                                            . H .                                                               ",
"                                                            : : :                                                               ",
"                                                            . . .                                                               ",
"                                                              .                                                                 ",
"                                                                                                                                ",
"                                                                                                                                "
};
