/* XPM */
static char *a27c53c02fe74574b22ca060fcd39cd7vyjSnlH59hnsWF8l[] = {
/* columns rows colors chars-per-pixel */
"47 47 159 2 ",
"   c None",
".  c #010101",
"X  c #080705",
"o  c #0C0A06",
"O  c #0B0A0A",
"+  c #050908",
"@  c #120F0B",
"#  c #160A07",
"$  c #19150B",
"%  c #12100D",
"&  c #0B1512",
"*  c #151313",
"=  c #191613",
"-  c #1E1A17",
";  c #1B1D1F",
":  c #22110F",
">  c #211D19",
",  c #371C18",
"<  c #0F231E",
"1  c #272112",
"2  c #2B2413",
"3  c #29231F",
"4  c #2B2519",
"5  c #3D341C",
"6  c #312A16",
"7  c #132B24",
"8  c #1E2022",
"9  c #16332B",
"0  c #1C3F34",
"q  c #2F2923",
"w  c #282827",
"e  c #332C26",
"r  c #352E28",
"t  c #3A332C",
"y  c #2A2D30",
"u  c #431D15",
"i  c #4D2219",
"p  c #4F2822",
"a  c #5A2E27",
"s  c #483E36",
"d  c #463D35",
"f  c #68352D",
"g  c #763D33",
"h  c #783D34",
"j  c #1F493D",
"k  c #204C3F",
"l  c #574A27",
"z  c #5F512B",
"x  c #4E443A",
"c  c #494037",
"v  c #51463D",
"b  c #62542C",
"n  c #6D5D30",
"m  c #746233",
"M  c #7D6A37",
"N  c #7F6D39",
"B  c #224E41",
"V  c #3D4145",
"C  c #265849",
"Z  c #2B6454",
"A  c #2F6C5B",
"S  c #30705E",
"D  c #367E69",
"F  c #347864",
"G  c #404348",
"H  c #464A4F",
"J  c #574B41",
"K  c #594E43",
"L  c #5E5146",
"P  c #4B4F55",
"I  c #51565C",
"U  c #62554A",
"Y  c #67594D",
"T  c #695B4F",
"R  c #6D5E52",
"E  c #736356",
"W  c #756558",
"Q  c #7B6A5C",
"!  c #595E64",
"~  c #62686F",
"^  c #666C74",
"/  c #6E757D",
"(  c #70767F",
")  c #86443A",
"_  c #9D4533",
"`  c #A94936",
"'  c #816E3A",
"]  c #85723B",
"[  c #994E42",
"{  c #A45447",
"}  c #847263",
"|  c #897767",
" . c #907E6C",
".. c #DA5F46",
"X. c #D06A5A",
"o. c #DC705F",
"O. c #CA6757",
"+. c #E87764",
"@. c #F87E6B",
"#. c #37806B",
"$. c #3E9078",
"%. c #3C8C75",
"&. c #978143",
"*. c #9A8445",
"=. c #9F8847",
"-. c #A08947",
";. c #A58D49",
":. c #AA914C",
">. c #B1974F",
",. c #B49950",
"<. c #BB9F53",
"1. c #BEA254",
"2. c #94806F",
"3. c #998573",
"4. c #A38D7A",
"5. c #C3A657",
"6. c #CBAD5A",
"7. c #D4B55F",
"8. c #FF826E",
"9. c #DDBD62",
"0. c #E3C265",
"q. c #ECCA69",
"w. c #F2CF6C",
"e. c #F5D16D",
"r. c #F8D46E",
"t. c #FCD770",
"y. c #777E87",
"u. c #7D848E",
"i. c #49A98D",
"p. c #46A489",
"a. c #4BAE91",
"s. c #50B99B",
"d. c #4DB496",
"f. c #55C6A6",
"g. c #59D0AE",
"h. c #5CD6B3",
"j. c #838B94",
"k. c #868E98",
"l. c #8D959F",
"z. c #AB9581",
"x. c #B29A85",
"c. c #B89F8A",
"v. c #BDA48D",
"b. c #969FAA",
"n. c #C1A791",
"m. c #C5AA93",
"M. c #C9AE97",
"N. c #CAAF98",
"B. c #CCB199",
"V. c #D1B59D",
"C. c #D4B89F",
"Z. c #D6B9A1",
"A. c #DBBEA4",
"S. c #DEC0A7",
"D. c #E2C4A9",
"F. c #E7C8AD",
"G. c #E8C9AE",
"H. c #EDCEB2",
"J. c #F0D0B4",
/* pixels */
"                                        . . . . . .                                           ",
"                                    . . . 5 b m z 6 . . .                                     ",
"                                  . X m 0.t.t.t.t.t.9.b . .                                   ",
"                                . $ 6.t.t.t.t.t.t.t.t.t.,.o .                                 ",
"                              . o 7.t.t.t.t.t.t.t.t.t.t.t.1.. .                               ",
"                              . ;.t.t.t.t.t.t.t.t.t.t.t.t.t.N .                               ",
"                            . 2 t.t.t.t.q.b $ 2 -.t.t.t.t.t.w.@ .                             ",
"                            . ] t.e.:.>.5 X c 3 . ;.t.t.0.&.0.b .                             ",
"                            . 5.e.6 . . . } J.G.e o <.t.<.. <.=..                             ",
"                            . 9.>.. | 3.O A.J.J.V.- . o o . <.<..                             ",
"                            . 0.*.. V.G. .J.J.J.J.D.T Y s . <.5..                             ",
"              . . . .       . 0.*.. V.c.X D.n.U C.m.. Z.x.. <.5..                             ",
"            . = c.v.> .     . 0.*.. V.J.F.J.4.. v.J.F.J.x.. <.5..                             ",
"            . R J.J.W .     . 0.*.. V.J.J.J.V.X R J.J.J.x.. <.5..                             ",
"            . W J.D.> .     . 0.-.. B.J.J.J.2.. T J.J.J.z.. 5.5..                             ",
"            . W J.M..       . 0.1.. z.J.J.J.M.U D.J.J.J.| . 9.5..                             ",
"            . W J.H.X .     . 0.w.o v J.H.J E 3.Y R J.H.q 1 t.5..                             ",
"            . W J.J.q .     . 9.t.M . 2.S.s . . . K H.E . =.t.1..                             ",
"            . W J.J.L .     . 5.t.r.5 . Y D.F.N.G.A.v . z t.t.-..                             ",
"            . W J.J.| .     . m t.t.e.n . s J.J.J.3 X ] t.t.t.l .                             ",
"            . W J.J.x..     . X 7.t.t.t.b % J.J.F.. ' t.t.t.1..                               ",
"            . W J.J.S..       . $ ,.;.M 1 @ J.J.D.. 2 z ' &.o . . .                           ",
"            . W J.J.J.= . . . . . . . . - J J.J.Q . < + . . O 8 ; . . .                       ",
"            . R J.J.J.r . . - c E 3.n.G.J.J.J.n.X j p.X & ~ b.b.b.l.P . .                     ",
"            . d J.J.A.. Y G.J.J.J.J.J.J.J.C.Y * . a.& * k.u.G y V y.b.^ . .                   ",
"            . X V.J.v.3 n.J.J.J.J.D.U * . . X q X + . ( ~ . X 3 X . ! b.G .                   ",
"              . e D.J.J.J.J.J.J.H.r . B 7 . N.J.z.. w k.X t D.J.D.t . j.u..                   ",
"                . > 3.D.J.A.x.} x . #.h.C O J.J.B.. ! V . V.Z.J.J.B.. I b.X .                 ",
"                  . . . . . . . . . d.h.D . m.H.t . / . L A.o } J.H.. H b.O .                 ",
"                        .         . p.h.f.X L J.| . O . V.R . B.J.B.. ! b.O .                 ",
"                                  . %.h.h.B X S.J.| . 3 C.o J J.J.E . k.b.O .                 ",
"                                  . C h.h.a.. } J.J.| . @ . B.J.D.O w j.j.O .                 ",
"                                  . & h.h.h.9 = H.J.J.| . v J.J.W . . . . . . .               ",
"                                    . p.h.h.$.. 4.J.J.H.. W J.D.O u ` ` ` ` _ # .             ",
"                                    . j h.h.h.& t J.J.H.> | J.W . ` ..........i .             ",
"                                    . . D #.#.9 . m.J.J.J.J.D.O . . . . . . . . .             ",
"                                      . . . . . . x J.J.J.J.R . ) [ [ [ [ [ [ , .             ",
"                                    . 7 s.s.s.B . . K n.M.R . f 8.8.8.8.8.8.8.a .             ",
"                                  . . a.h.h.h.C X h . . . . f @.8.8.8.8.8.8.8.a .             ",
"                                  . B h.h.h.h.S . +.+.{ { o.8.8.8.8.8.8.8.8.8., .             ",
"                                  . i.h.h.h.h.i.. ) 8.8.8.8.8.8.8.8.8.8.8.8.O.. .             ",
"                                . & h.h.h.h.h.h.0 . { 8.8.8.8.8.8.8.8.8.8.X.: .               ",
"                                . k h.h.h.h.h.h.f.7 . , f g g g g g g g p . .                 ",
"                                . A h.h.h.h.h.h.h.g.F 7 + . . . . . . . . .                   ",
"                                . D h.h.h.h.h.h.h.h.h.h.h.Z .                                 ",
"                                . 0 Z Z Z Z Z Z Z Z Z Z Z 9 .                                 ",
"                                . . . . . . . . . . . . . . .                                 "
};
