/* XPM */
static char *a15f22dac54648eec9cc22617ca67c64b94R7Zw7NBb2UO6o[] = {
/* columns rows colors chars-per-pixel */
"64 64 5 1 ",
"  c None",
". c #6462FF",
"X c #6562FF",
"o c #6463FF",
"O c #6563FF",
/* pixels */
"                                                                ",
"                                                                ",
"                                                                ",
"                                                                ",
"                                                                ",
"                                                                ",
"                                                                ",
"                                                                ",
"       XXXXXXXXXXXXXXXXXXXXXXXXXXXXOOOXXXXXXXXXXXXXXXXXXX       ",
"      XXXXXXXXXXXXXXXXXXXXXXXXXXXXXOXXXXXXXXXXXXXXXXXXXXXX      ",
"     XXXXXXXXXXXXXXXXXXXXXXXXXXXXXXXXXXXXXXXXXXXXXXXXXXXXXX     ",
"      XXXXXXXXXXOOXXXXXXXXXXXXXXXXXXXXXXOXXXXXXXXXXXXXXXXX      ",
"      XXXXXXXXXXOXXXXXXXXXXXXXXXXXXXXXXXXXXXXXXXXXXXXXXXXX      ",
"                OXXXXX          XXXXXX          XXXXXX          ",
"                XXXXX           XXXXX           XXXXX           ",
"                XXXXX           XXXXX           XXXXX           ",
"                XOOXX           XXXXX           XXXXX           ",
"                XOXXX           OXXXX           XXXXX           ",
"                XXXXXX          OXXXXX          XXXXXX          ",
"      XXXXXXXXXXXXXXXXXXXXXXXXXXOXXXXXXXXXXXXXXOXXXXXXXXXX      ",
"      XXXXXXXXXXXXXXXXXXXXXXXXXXXXXXXXXXXXXXXXXOXXXXXXXXXX      ",
"     XXXXXXXXXOOXXXXXXXXXXXXXXXXXXXXXXXXXXXXXXXXXXXXXXXXXXX     ",
"      XXXXXXXXXXXOXXXXOXXXXXXXXXXXXXXXXXXXXXXXXXXXOOXXXXXX      ",
"       XXXXXXXXXOOXXXXOOOXXXXXXXXXXXXXXXXXXXXXXXXXOOXXXXX       ",
"           XXXXX           XXXXX           XOOXX                ",
"           XXXXX           XXXXX           XOOOX                ",
"           XXXXX           XXXXX           XXXXX                ",
"           XXXXX           XXXXX           XXXXX                ",
"           XXXXX           XXXXX           XXXXX                ",
"       XOXXXXXXXXXXXXXXXXXXXXXXXXXXXXXXXXXXXXXXXXXXXXXXXX       ",
"      XXXXXXXXXXXXXXXXXXXXXXOXXXXXXXXXXXXXXXXXXXXXXXXXXXXX      ",
"     XXXXXXXXXXXXXXXXXXXXXXOOXXXXXXXXXXXXXXXXXXXXXXXXXXXXXX     ",
"     XXXXXXXXXXXXXXOOXXXXXXXXXXXXXXXXXXXXXXXXXXXXXXOOXXXXXX     ",
"      XXXXXXXXXXXXXOXXXXXXXXXXXXXXXXXXXXXXXXXXXXXXXOXXXXXX      ",
"       XXXXXXXXXXXXXXXXXXXXXXXXXXXXXXXXXXXXXXXXXXXXXXXXXX       ",
"                XXXXX           XXXXX           XXXXX           ",
"                XXXXX           XXXXX           XXXXX           ",
"                XXXXX           XXXXX           XXXXX           ",
"                XXXXX           XXXXX           XXXXX           ",
"                XXXXX           XXOOX           XXXXX           ",
"       XXXXXXXXXXXXXXXXOXXXXXXXXXXXXXXXXXXXXXXXXXXXXXXXXX       ",
"      XXXXXXXXXXXXXXXXXXXXXXXXXXXXXXXXXXXXXXXXXXXXXXXXXXXX      ",
"     XXXXXXXXXXXXXXXXXXXXXXXXXXXXXXXXXXXXXXXXXXXXXXXXXXXXXX     ",
"      XXXXXXXXXXXXXXXXXXXXOOOXXXOXXXXXXXXXXXXXXXXXXXXXXXXX      ",
"      XXXXXXXXXOXXXXXXXXXOXXXOOXOXXXXXXXXXXXXXXOXXXXXXXXXX      ",
"          XXXXXO          XXXXOO          XXXXXO                ",
"           XXXXO           XXXXX           XXXXO                ",
"           XXXXX           XXXXX           XXXXX                ",
"           XXXXX           XXXXX           XXXXX                ",
"           XXXXX           XXXXX           XXXXX                ",
"          XXXXXX          XXXXXX          XXXXXX                ",
"      XXXXXXXXXXXXXXXXXXXXXXXXXXXXXXXXXXXXXXXXXXXXXXXXXXXX      ",
"      XXXXXXXXXXXXXXXXXXXXXXXXXXXXXXXXXXXXXXXXXXXXXXXXXXXX      ",
"     XXXXXXXXXXXXXXXXXXXXXXXXXXXXXXXXXXXXXXXXXXXXXXXXXXXXXX     ",
"      XXXXXXXXXXXXXXXXXXXXXXXXXXXXXXXXXXXXXXXXXXXXXXXXXXXX      ",
"       XXXXXXXXXOXXXXXXXXXXXXXXXOXXXXXXXXXXXXXXXOXXXXXXXX       ",
"                                                                ",
"                                                                ",
"                                                                ",
"                                                                ",
"                                                                ",
"                                                                ",
"                                                                ",
"                                                                "
};
