/* XPM */
static char *_4b29b5fa80d425cfbc8fc81c985e5e9KDWV1QoF7PXjdsNH[] = {
/* columns rows colors chars-per-pixel */
"64 64 153 2 ",
"   c None",
".  c black",
"X  c #010100",
"o  c #010101",
"O  c #020101",
"+  c #030101",
"@  c #020203",
"#  c #020303",
"$  c gray1",
"%  c #040201",
"&  c #040302",
"*  c #040404",
"=  c #050606",
"-  c #060607",
";  c #0C0403",
":  c #0A0504",
">  c #0C0605",
",  c #070809",
"<  c #090A0B",
"1  c #0E0B08",
"2  c #0A0B0C",
"3  c #0B0C0D",
"4  c #0C0D0E",
"5  c #0D0D0E",
"6  c #0D0E0F",
"7  c #0E0E0E",
"8  c #0E0F0F",
"9  c #100604",
"0  c #190D0B",
"q  c #1A0D0B",
"w  c #1D0D09",
"e  c #1B0E0C",
"r  c #1E0F0D",
"t  c #0F1010",
"y  c #1B1B1C",
"u  c #280F0B",
"i  c #24100B",
"p  c #22110F",
"a  c #2E110C",
"s  c #2D1713",
"d  c #292018",
"f  c #202326",
"g  c #212327",
"h  c #222428",
"j  c #25282C",
"k  c #25292C",
"l  c #26292D",
"z  c #28292B",
"x  c #292B2E",
"c  c #2D2E2E",
"v  c #2E2F2F",
"b  c #392B20",
"n  c #3A2D21",
"m  c #2B2E31",
"M  c #2A2D32",
"N  c #2A2E32",
"B  c #2B2E33",
"V  c #2B2F33",
"C  c #2C2E31",
"Z  c #2C2F34",
"A  c #393A3B",
"S  c #421912",
"D  c #47241F",
"F  c #65261B",
"G  c #68271C",
"H  c #622B1F",
"J  c #6B2F22",
"K  c #723A31",
"L  c #763C33",
"P  c #773D33",
"I  c #783D34",
"U  c #793E34",
"Y  c #5C4634",
"T  c #5E4836",
"R  c #5F4836",
"E  c #604937",
"W  c #614A37",
"Q  c #4B5055",
"!  c #4C5157",
"~  c #4E555D",
"^  c #4F555E",
"/  c #50565F",
"(  c #595A5C",
")  c #5A5B5D",
"_  c #515860",
"`  c #525861",
"'  c #525962",
"]  c #565C66",
"[  c #565D67",
"{  c #5A616A",
"}  c #5A616B",
"|  c #5F6771",
" . c #666769",
".. c #67686A",
"X. c #606872",
"o. c #616873",
"O. c #656D78",
"+. c #6C727A",
"@. c #6C737B",
"#. c #7B7C7E",
"$. c #863B2B",
"%. c #873B2C",
"&. c #883C2C",
"*. c #86733C",
"=. c #87743C",
"-. c #88743D",
";. c #C24834",
":. c #E4553E",
">. c #E9573F",
",. c #9F5145",
"<. c #AB574A",
"1. c #C36354",
"2. c #C76556",
"3. c #CA6757",
"4. c #E7654A",
"5. c #FC6E51",
"6. c #FD755B",
"7. c #F07A68",
"8. c #F97F6B",
"9. c #B28865",
"0. c #B38866",
"q. c #C0A455",
"w. c #C1A456",
"e. c #C3A657",
"r. c #CC9C74",
"t. c #CF9E76",
"y. c #FB806C",
"u. c #FE816E",
"i. c #FF826E",
"p. c #E7C567",
"a. c #FCD770",
"s. c #727881",
"d. c #747F89",
"f. c #757F8A",
"g. c #838F9B",
"h. c #9B9DA0",
"j. c #9C9EA1",
"k. c #969FAA",
"l. c #9CA0A6",
"z. c #97A0AB",
"x. c #9AA2AD",
"c. c #9AA3AE",
"v. c #9AA3AF",
"b. c #A2AAB5",
"n. c #AFB1B4",
"m. c #A9B1BD",
"M. c #AAB2BD",
"N. c #B3B5B8",
"B. c #BDBFC2",
"V. c #CCD1D9",
"C. c #D8DBDF",
"Z. c #E5E8EC",
"A. c #E6E9ED",
/* pixels */
"                                                                                                                                ",
"                                                          . . . .             . . . .             . . . .                       ",
"                                                        . . . . . .         . . . . . .         . . . . . .                     ",
"                                                        . . w.w.. .         . . w.w.. .         . . w.w.. .                     ",
"                                                        . . w.w.. .         . . w.w.. .         . . w.w.. .                     ",
"                                                        . . . . . .         . . . . . .         . . . . . .                     ",
"                                                          . . . .             . . . .             . . . .                       ",
"                                                            . .                 . .                 . .                         ",
"                                                            . .                 . .                 . .                         ",
"                                                  . . . . . . . . . . . . . . . . . . . . . . . . . . . . . . . .               ",
"                                                  . . . . . . . . . . . . . . . . . . . . . . . . . . . . . . . .               ",
"                                                  . . i.i.i.i.i.i.i.i.i.i.i.i.i.i.i.i.i.i.i.i.i.i.i.i.i.i.i.i.. .               ",
"                                                  . . i.i.8.P 0 0 P 8.i.i.i.i.i.i.i.i.i.i.i.i.i.i.i.i.i.i.i.i.. .               ",
"                                                  . . i.i.P . . . . I i.i.i.i.i.i.i.i.i.i.i.i.i.i.i.i.i.i.i.i.. .               ",
"                                                  . . i.i.0 . w.w.. 0 i.i.. . . . . . . . . . . . . . . . i.i.. .               ",
"                                                  . . i.i.0 . w.w.. e i.i.. . . . . . . . . . . . . . . . i.i.. .               ",
"                                                  . . i.i.I . . . . I i.i.i.i.i.i.i.i.i.i.i.i.i.i.i.i.i.i.i.i.. .               ",
"                                                  . . i.i.8.I 0 e I 8.i.i.i.i.i.i.i.i.i.i.i.i.i.i.i.i.i.i.i.i.. .               ",
"                                                  . . i.i.i.i.i.i.i.i.i.i.i.i.i.i.i.i.i.i.i.i.i.i.i.i.i.i.i.i.. .               ",
"                                                  . . . . . . . . . . . . . . . . . . . . . . . . . . . . . . . .               ",
"                                                  . . . . . . . . . . . . . . . . . . . . . . . . . . . . . . . .               ",
"                                                        . . M.M.. .                             . . M.M.. .                     ",
"                                                        . . V.V.. .                             . . V.V.. .                     ",
"                                                        . . V.V.. .                             . . V.V.. .                     ",
"                                                        . . M.M.. .                             . . M.M.. .                     ",
"                                                      . . . . . . . . . . . . . . . . . . . . . . . . . . . . . .               ",
"                                                      . . . . . . . . . . . . . . . . . . . . . . . . . . . . . .               ",
"                                                      . ) A.A.A.A.A.A.A.A.A.A.A.A.A.A.A.A.A.A.A.A.A.A.A.A.A.A.) .               ",
"                                                    . . j.A.A.A.A.A.A.A.A.A.A.A.A.A.A.A.A.A.A.A.A.A.A.A.A.A.A.h.. .             ",
"                        . . . . . . . . . . . . . . . * C.A.A.A.A.A.A.A.A.A.A.A.A.A.A.A.A.A.A.A.A.A.A.A.A.A.A.C.* . . . . .     ",
"                    . . . . . . . . . . . . . . . . . A A.A.A.A.A.A.A.A.A.A.A.A.A.A.A.A.A.A.A.A.A.A.A.A.A.A.A.A.A . . . . . .   ",
"                    . > ,.7.i.i.i.i.i.i.i.i.i.i.5.H . #.A.A.A.A.A.A.A.A.A.A.A.A.A.A.A.A.A.A.A.A.A.A.A.A.A.A.A.A.#.. J 6.1.. .   ",
"                  . . <.i.i.i.i.i.i.i.i.i.i.i.i.5.w . B.A.A.A.A.A.A.A.A.A.A.A.A.A.A.A.A.A.A.A.A.A.A.A.A.A.A.A.A.B.. i 5.i.. .   ",
"                  . r i.i.I : . . . . . . . . i.5.. . . . . . . . . . . . . . . . . . . . . . . . . . . . . . . . . . 5.i.. .   ",
"                . . K i.3.. . . . . . . . . . i.5.. . . . . . . . . . . . . . . . . . . . . . . . . . . . . . . . . . 5.i.. .   ",
"                . . 2.i.K .  .A.A.A.A.A.A.. . i.5.. . %.5.5.5.5.$.. . =.a.a.a.a.*.. . %.5.5.5.5.$.. . =.a.a.a.a.*.. . 5.i.. .   ",
"                . r i.i.r . N.A.A.A.A.A.A.. . i.5.. . % &.4.4.&.% . . % -.p.p.-.% . . % &.4.4.&.% . . % -.p.p.-.% . . 5.i.. .   ",
"              . . K i.2.. y A.A.A.A.A.A.A.. . i.5.. . . . . . . . ! Q . . . . . . ! Q . . . . . . ! Q . . . . . . . . 5.i.. .   ",
"            . . . 2.i.K . ..A.A.A.A.A.A.A.. . i.5.. . s.V 5 < x @.v.v.@.x < < x @.v.v.@.x < < x @.v.v.@.x < 5 C s.. . 5.i.. .   ",
"        . . . . s i.i.p . . . . . . . . . . . i.5.. . b.v.z.z.v.b.M.M.b.v.z.z.v.b.M.M.b.v.z.z.v.b.M.M.b.v.z.z.v.b.. . 5.i.. .   ",
"    . . . r K 2.i.i.i.. . . . . . . . . . . . i.5.. . M.M.M.M.M.M.M.M.M.M.M.M.M.M.M.M.M.M.M.M.M.M.M.M.M.M.M.M.M.M.. . 5.i.. .   ",
"    . > <.i.i.i.i.i.i.. . >.>.>.>.>.>.>.>.. . i.5.. . M.M.M.M.M.M.M.M.M.M.M.M.M.M.M.M.M.M.M.M.M.M.M.M.M.M.M.M.M.M.. . 5.i.. .   ",
"  . . ,.i.i.i.i.i.i.i.. . >.>.>.>.>.>.>.>.. . i.5.. . k.k.k.k.k.k.k.k.k.k.k.k.k.k.k.k.k.k.k.k.k.k.k.k.k.k.k.k.k.k.. . 5.i.. .   ",
"  . . 7.i.i.i.i.i.i.i.. . >.>.>.>.>.>.>.>.. . i.5.. . . . . . . . . . . . . . . . . . . . . . . . . . . . . . . . . . 5.i.. .   ",
"  . . i.i.i.i.i.i.i.i.. . >.>.>.>.>.>.>.>.. . i.5.. . . . . . . . . . . . . . . . . . . . . . . . . . . . . . . . . . 5.i.. .   ",
"  . . i.i.i.i.i.i.i.i.. . >.>.>.>.>.>.>.>.. . i.5.. . t.t.t.t.t.t.t.t.t.t.t.t.t.t.t.t.t.t.t.t.t.t.t.t.t.t.t.t.t.t.. . 5.i.. .   ",
"  . . i.i.i.i.i.i.i.i.. . >.>.>.>.>.>.>.>.. . i.5.. . t.t.t.t.t.t.t.t.t.t.t.t.t.t.t.t.t.t.t.t.t.t.t.t.t.t.t.t.t.t.. . 5.i.. .   ",
"  . . i.i.i.i.i.i.i.i.. . a 9 ; u G ;.>.>.. . i.5.. . t.t.t.t.t.t.t.t.t.t.t.t.t.t.t.t.t.t.9.Y d 1 1 d Y 9.t.t.t.t.. . 5.i.. .   ",
"  . . i.i.i.i.i.i.y.P . . . . . . . . F :.. . i.5.. . t.t.t.t.t.t.t.t.t.t.t.t.t.t.t.t.t.T . . . . . . . . T t.t.t.. . 5.i.. .   ",
"  . . i.i.i.i.i.y.D . . Z ^ X.X.^ V . . S . . i.5.. . t.t.t.t.t.t.t.t.t.t.t.t.t.t.t.t.b . . Z ^ X.X.^ V . . n t.t.. . 5.i.. .   ",
"  . . i.i.i.i.i.P . 3 ` O.O.O.O.O.O.` 3 . . . i.5.. . t.t.t.t.t.t.t.t.t.t.t.t.t.t.t.E . 3 ` O.O.O.O.O.O.` 3 . E t.. . 5.i.. .   ",
"  . . . . . . . . . ` O.} f * * f ] O.` . . . . . . . . . . . . . . . . . . . . . . . . ` O.} f * * f ] O.` . . . . . . . . .   ",
"  . . . . . . . . Z O.} , . . . . , } O.V . . . . . . . . . . . . . . . . . . . . . . Z O.} , . . . . , } O.V . . . . . . . .   ",
"  . . V.V.V.V.z . / O.f . k d.d.k . h O.^ . z V.V.V.V.A.A.A.A.A.A.A.A.A.A.A.A.A.A.c . / O.f . k d.d.k . h O.^ . c A.A.A.A.. .   ",
"  . . V.V.V.V.5 . X.O.* . d.g.g.d.. * O.X.. 5 V.V.V.V.A.A.A.A.A.A.A.A.A.A.A.A.A.A.t . X.O.* . d.g.g.d.. * O.X.. t A.A.A.A.. .   ",
"  . . V.V.V.V.5 . X.O.* . d.g.g.d.. * O.| . 5 V.V.V.V.A.A.A.A.A.A.A.A.A.A.A.A.A.A.5 . X.O.* . d.g.g.d.. * O.| . t A.A.A.A.. .   ",
"  . . l.V.V.V.z . ^ O.f . k d.d.k . f O.^ . z V.V.V.V.A.A.A.A.A.A.A.A.A.A.A.A.A.A.c . ^ O.f . k d.d.k . f O.^ . c A.A.A.n.. .   ",
"  . . . . . . . . V O.] , . . . . , ] O.V . . . . . . . . . . . . . . . . . . . . . . V O.] , . . . . , ] O.V . . . . . . . .   ",
"    . . . . . . . . ` O.} h * * f ] O.` . . . . . . . . . . . . . . . . . . . . . . . . ` O.} h * * f ] O.` . . . . . . . .     ",
"                . . 3 ` O.O.O.O.O.O.` 2 . .                                         . . 3 ` O.O.O.O.O.O.` 2 . .                 ",
"                  . . . V ^ X.X.^ V . . .                                             . . . V ^ X.X.^ V . . .                   ",
"                    . . . . . . . . . .                                                 . . . . . . . . . .                     ",
"                        . . . . . .                                                         . . . . . .                         ",
"                                                                                                                                "
};
